<svg id="eaJtUkQKHEw1" xmlns="http://www.w3.org/2000/svg" xmlns:xlink="http://www.w3.org/1999/xlink" viewBox="0 0 400 400" shape-rendering="geometricPrecision" text-rendering="geometricPrecision"><g transform="translate(-899.150818-866.184143)" clip-rule="evenodd"><g transform="matrix(4.16667 0 0 4.16667 0.000001-.000002)" clip-rule="evenodd"><path d="M263.796,229.357c3.423,0,6.215-2.792,6.215-6.215s-2.792-6.214-6.215-6.214c-3.422,0-6.215,2.791-6.215,6.214s2.793,6.215,6.215,6.215Z" clip-rule="evenodd" fill="#999fb7" fill-rule="evenodd" stroke-linejoin="round" stroke-miterlimit="2"/><path d="M262.962,290.692c0,2.291-1.503,4.148-3.359,4.148s-3.36-1.857-3.36-4.148v-35.016c0-2.291,1.504-4.148,3.36-4.148s3.359,1.857,3.359,4.148v35.016Z" clip-rule="evenodd" fill="#999fb7" stroke-linejoin="round" stroke-miterlimit="2"/><path d="M271.349,290.692c0,2.291-1.504,4.148-3.36,4.148s-3.36-1.857-3.36-4.148v-35.016c0-2.291,1.504-4.148,3.36-4.148s3.36,1.857,3.36,4.148v35.016Z" clip-rule="evenodd" fill="#999fb7" stroke-linejoin="round" stroke-miterlimit="2"/><path d="M253.532,266.816h20.528l-5.043-32.12h-10.442l-5.043,32.12Z" clip-rule="evenodd" fill="#999fb7" fill-rule="evenodd" stroke-linejoin="round" stroke-miterlimit="2"/><path d="M256.187,231.349h15.217c2.57,0,4.672,2.162,4.672,4.803v4.37h-24.56v-4.37c0-2.642,2.102-4.803,4.671-4.803Z" clip-rule="evenodd" fill="#999fb7" fill-rule="evenodd" stroke-linejoin="round" stroke-miterlimit="2"/><path d="M253.068,259.253c-.242,1.458-1.62,2.444-3.078,2.203-1.458-.243-2.444-1.621-2.202-3.078l3.717-22.416c.242-1.458,1.62-2.444,3.078-2.202c1.459.242,2.444,1.62,2.203,3.078l-3.718,22.415Z" clip-rule="evenodd" fill="#999fb7" stroke-linejoin="round" stroke-miterlimit="2"/><path d="M274.524,259.253c.242,1.458,1.62,2.444,3.078,2.203c1.458-.243,2.444-1.621,2.202-3.078l-3.718-22.416c-.241-1.458-1.62-2.444-3.077-2.202-1.458.242-2.445,1.62-2.203,3.078l3.718,22.415Z" clip-rule="evenodd" fill="#999fb7" stroke-linejoin="round" stroke-miterlimit="2"/></g></g></svg>
