<svg id="eu7U3qjZbVW1" xmlns="http://www.w3.org/2000/svg" xmlns:xlink="http://www.w3.org/1999/xlink" viewBox="0 0 400 400" shape-rendering="geometricPrecision" text-rendering="geometricPrecision"><g transform="translate(-217.423233-866.50708)" clip-rule="evenodd"><g transform="matrix(4.16667 0 0 4.16667-.000001 0.000002)" clip-rule="evenodd"><path d="M100.497,229.434c3.423,0,6.215-2.791,6.215-6.214s-2.792-6.215-6.215-6.215-6.215,2.792-6.215,6.215s2.792,6.214,6.215,6.214Z" clip-rule="evenodd" fill="#999fb7" fill-rule="evenodd" stroke-linejoin="round" stroke-miterlimit="2"/><path d="M114.587,258.857c0,1.478-1.198,2.677-2.676,2.677s-2.676-1.199-2.676-2.677v-22.722c0-1.478,1.198-2.676,2.676-2.676s2.676,1.198,2.676,2.676v22.722Z" clip-rule="evenodd" fill="#999fb7" stroke-linejoin="round" stroke-miterlimit="2"/><path d="M99.348,290.77c0,2.291-1.504,4.148-3.36,4.148-1.855,0-3.359-1.857-3.359-4.148v-35.016c0-2.291,1.504-4.148,3.359-4.148c1.856,0,3.36,1.857,3.36,4.148v35.016Z" clip-rule="evenodd" fill="#999fb7" stroke-linejoin="round" stroke-miterlimit="2"/><path d="M107.734,290.77c0,2.291-1.504,4.148-3.359,4.148-1.856,0-3.36-1.857-3.36-4.148v-35.016c0-2.291,1.504-4.148,3.36-4.148c1.855,0,3.359,1.857,3.359,4.148v35.016Z" clip-rule="evenodd" fill="#999fb7" stroke-linejoin="round" stroke-miterlimit="2"/><path d="M91.128,258.857c0,1.478-1.198,2.677-2.676,2.677s-2.676-1.199-2.676-2.677v-22.722c0-1.478,1.198-2.676,2.676-2.676s2.676,1.198,2.676,2.676v22.722Z" clip-rule="evenodd" fill="#999fb7" stroke-linejoin="round" stroke-miterlimit="2"/><rect width="15.107" height="22.477" rx="0" ry="0" transform="translate(92.628 238.578)" clip-rule="evenodd" fill="#999fb7" fill-rule="evenodd" stroke-linejoin="round" stroke-miterlimit="2"/><path d="M90.448,231.427h19.467c2.57,0,4.672,2.161,4.672,4.802v4.37h-28.811v-4.37c0-2.641,2.102-4.802,4.672-4.802Z" clip-rule="evenodd" fill="#999fb7" fill-rule="evenodd" stroke-linejoin="round" stroke-miterlimit="2"/></g></g></svg>
